<svg width="33" height="31" viewBox="0 0 33 31" fill="none" xmlns="http://www.w3.org/2000/svg">
<path d="M5.97387 20C5.27387 20.4 4.66387 20.45 4.14387 20.15C3.62387 19.85 3.36387 19.3 3.36387 18.5V11.3C3.36387 10.76 3.48387 10.2 3.72387 9.62C3.96387 9.02 4.28387 8.47 4.68387 7.97C5.08387 7.45 5.51387 7.06 5.97387 6.8L12.4539 3.05C13.1339 2.65 13.7339 2.6 14.2539 2.9C14.7939 3.2 15.0639 3.75 15.0639 4.55V8.75L12.4539 10.25V6.05L5.97387 9.8V17L12.4539 13.25C13.1339 12.85 13.7339 12.8 14.2539 13.1C14.7939 13.4 15.0639 13.95 15.0639 14.75V21.95C15.0639 22.47 14.9339 23.03 14.6739 23.63C14.4339 24.23 14.1139 24.79 13.7139 25.31C13.3339 25.81 12.9139 26.19 12.4539 26.45L5.97387 30.2C5.27387 30.6 4.66387 30.65 4.14387 30.35C3.62387 30.05 3.36387 29.5 3.36387 28.7V25.7L5.97387 24.2V27.2L12.4539 23.45V16.25L5.97387 20ZM12.4539 16.25V23.45L9.84387 21.95V14.75L12.4539 16.25ZM12.4539 23.45L5.97387 27.2L3.36387 25.7L9.84387 21.95L12.4539 23.45ZM12.4539 6.05V10.25L9.84387 8.75V4.55L12.4539 6.05ZM5.97387 24.2L3.36387 25.7L0.753867 24.2L3.36387 22.7L5.97387 24.2ZM3.36387 25.7V28.7C3.36387 29.5 3.62387 30.05 4.14387 30.35L1.53387 28.85C1.01387 28.55 0.753867 28 0.753867 27.2V24.2L3.36387 25.7ZM14.2839 13.1C13.7439 12.8 13.1339 12.85 12.4539 13.25L5.97387 17L3.36387 15.5L9.84387 11.75C10.5439 11.35 11.1539 11.3 11.6739 11.6L14.2839 13.1ZM14.2839 2.9C13.7439 2.6 13.1339 2.65 12.4539 3.05L5.97387 6.8C5.51387 7.06 5.08387 7.45 4.68387 7.97C4.28387 8.47 3.96387 9.02 3.72387 9.62C3.48387 10.2 3.36387 10.76 3.36387 11.3V18.5C3.36387 19.3 3.62387 19.85 4.14387 20.15L1.53387 18.65C1.01387 18.35 0.753867 17.8 0.753867 17V9.8C0.753867 9.26 0.873867 8.7 1.11387 8.12C1.35387 7.52 1.67387 6.97 2.07387 6.47C2.47387 5.95 2.90387 5.56 3.36387 5.3L9.84387 1.55C10.5439 1.15 11.1539 1.1 11.6739 1.4L14.2839 2.9ZM24.9482 21.8L22.8782 23C22.1782 23.4 21.5682 23.45 21.0482 23.15C20.5282 22.85 20.2682 22.3 20.2682 21.5V9.5L22.8782 8V20L29.6282 16.1V4.1L32.2082 2.6V14.6C32.2082 15.12 32.0882 15.68 31.8482 16.28C31.6082 16.88 31.2882 17.44 30.8882 17.96C30.5082 18.46 30.0882 18.84 29.6282 19.1L27.5282 20.3V29.3L24.9482 30.8V21.8ZM24.9482 21.8V30.8L22.3382 29.3V20.3L24.9482 21.8ZM32.2082 2.6L29.6282 4.1L27.0182 2.6L29.6282 1.1L32.2082 2.6ZM29.6282 4.1V16.1L27.0182 14.6V2.6L29.6282 4.1ZM29.6282 16.1L22.8782 20L20.2682 18.5L27.0182 14.6L29.6282 16.1ZM22.8782 8L20.2682 9.5L17.6582 8L20.2682 6.5L22.8782 8ZM20.2682 9.5V21.5C20.2682 22.3 20.5282 22.85 21.0482 23.15L18.4382 21.65C17.9182 21.35 17.6582 20.8 17.6582 20V8L20.2682 9.5Z" fill="white"/>
</svg>
